<svg id="Layer_1" data-name="Layer 1" xmlns="http://www.w3.org/2000/svg" viewBox="0 0 500 500"><defs><style>.cls-1{fill:#f9bb0d;}.cls-2{fill:#f2948b;}.cls-3{fill:#ffbeb3;}.cls-4{fill:#fff;opacity:0.22;}.cls-5{fill:#24285b;}</style></defs><title>Art Design</title><rect class="cls-1" x="238.67" y="30.9" width="15.18" height="47.09" rx="3"/><path class="cls-2" d="M250.48,31h-4.21v47.1h4.21a3.32,3.32,0,0,0,3.31-3.32V34.26A3.31,3.31,0,0,0,250.48,31Z"/><path class="cls-1" d="M220.07,107.92l-.84.24c-18.71,6.23-36.88,15.56-51.26,29.23-42.8,40.7-35.85,114.57,5.84,153.54,11.69,10.94,16.83,25.05,20.41,40.61,1.07,4.69,7.28,53.57,5.11,53.57h48l-1-280.58A100.19,100.19,0,0,0,220.07,107.92Z"/><path class="cls-3" d="M361.16,201.77a34.27,34.27,0,0,0-13.85-27.55,91.1,91.1,0,0,0-23.39-36.83c-14.38-13.67-32.55-23-51.26-29.23l-.84-.24a99.71,99.71,0,0,0-25.44-3.39l1,280.58h45.21c-2.16,0,4-48.88,5.12-53.57a136.74,136.74,0,0,1,3.92-14c.77.05,1.54.09,2.33.09A34.27,34.27,0,0,0,338,278.87a34.36,34.36,0,0,0,14.82-54.65A34.17,34.17,0,0,0,361.16,201.77Z"/><path class="cls-2" d="M294.93,93l-5-5.73a2.57,2.57,0,0,1,.62-3.93l36.9-24.24a3.57,3.57,0,0,1,4.53.55l5,5.73a2.56,2.56,0,0,1-.63,3.93L299.47,93.54A3.59,3.59,0,0,1,294.93,93Z"/><path class="cls-1" d="M197.68,93l5-5.73a2.56,2.56,0,0,0-.63-3.93L165.16,59.09a3.59,3.59,0,0,0-4.54.55l-5,5.73a2.57,2.57,0,0,0,.62,3.93l36.9,24.24A3.57,3.57,0,0,0,197.68,93Z"/><path class="cls-2" d="M317.6,221.22s0,0,0-.06a1.75,1.75,0,0,1,.87-2.32c9.54-4.33,8-14.52,7.9-15a1.75,1.75,0,0,1,3.45-.59c0,.13,2.13,13.27-9.9,18.73A1.76,1.76,0,0,1,317.6,221.22Z"/><path class="cls-2" d="M298.12,222.15a1.77,1.77,0,0,1,1.94-1.4c11.32,1.44,19.31,5.47,23.74,12a23,23,0,0,1,3.25,17.43,1.75,1.75,0,0,1-2.13,1.27,1.72,1.72,0,0,1-1.26-2.13h0a19.83,19.83,0,0,0-2.78-14.64c-3.85-5.62-11-9.13-21.26-10.43a1.74,1.74,0,0,1-1.51-2S298.12,222.19,298.12,222.15Z"/><path class="cls-2" d="M255.38,199.7a1.75,1.75,0,0,1,2-1.39c7.76,1.34,14.1.19,18.83-3.42,7.51-5.72,8.56-15.76,8.57-15.86a1.75,1.75,0,1,1,3.49.34c0,.47-1.23,11.67-9.94,18.31-5.54,4.22-12.79,5.6-21.54,4.08a1.74,1.74,0,0,1-1.43-2Z"/><path class="cls-2" d="M268.67,289.32a1.75,1.75,0,0,1,3.08.44c3.51,10.15-7.67,17.9-8.15,18.22a1.74,1.74,0,0,1-2.43-.46,1.76,1.76,0,0,1,.46-2.43h0c.1-.07,9.44-6.57,6.81-14.18A1.78,1.78,0,0,1,268.67,289.32Z"/><path class="cls-2" d="M256.91,260.77a1.38,1.38,0,0,1,.08-.27c3.22-8.82,8.3-14.31,15.09-16.31,13.24-3.92,27.94,7,28.56,7.45a1.75,1.75,0,0,1-2.11,2.8c-.13-.11-13.93-10.31-25.47-6.89-5.66,1.68-10,6.44-12.79,14.16a1.75,1.75,0,0,1-3.36-.94Z"/><path class="cls-4" d="M229.18,331.54c-3.58-15.56-8.71-29.67-20.41-40.61-41.68-39-48.63-112.84-5.83-153.54,14.38-13.67,32.55-23,51.26-29.23l.84-.24c2.77-.74,5.57-1.32,8.39-1.82a100.16,100.16,0,0,0-43.36,1.82l-.84.24c-18.71,6.23-36.88,15.56-51.26,29.23-42.8,40.7-35.85,114.57,5.84,153.54,11.69,10.94,16.83,25.05,20.41,40.61,1.07,4.69,7.28,53.57,5.11,53.57h35C236.46,385.11,230.26,336.23,229.18,331.54Z"/><path class="cls-5" d="M301.83,385.29c0,5.2-2.81,9.41-6.28,9.41H193.06c-3.47,0-6.27-4.21-6.27-9.41h0c0-5.2,2.8-9.41,6.27-9.41H295.55c3.47,0,6.28,4.21,6.28,9.41Z"/><path class="cls-5" d="M301.83,404.11c0,5.2-2.81,9.42-6.28,9.42H193.06c-3.47,0-6.27-4.22-6.27-9.42h0c0-5.2,2.8-9.41,6.27-9.41H295.55c3.47,0,6.28,4.21,6.28,9.41Z"/><path class="cls-5" d="M301.83,423.46c0,5.49-2.81,9.94-6.28,9.94H193.06c-3.47,0-6.27-4.45-6.27-9.94h0c0-5.49,2.8-9.93,6.27-9.93H295.55c3.47,0,6.28,4.44,6.28,9.93Z"/><path class="cls-5" d="M244.31,470a36.6,36.6,0,0,0,36.6-36.6H207.7A36.61,36.61,0,0,0,244.31,470Z"/></svg>