<svg id="Layer_1" data-name="Layer 1" xmlns="http://www.w3.org/2000/svg" viewBox="0 0 500 500"><defs><style>.cls-1{fill:#ffd44d;}.cls-2{fill:#f9bb0d;}.cls-3{fill:#f0457d;}.cls-4{fill:#db2868;}</style></defs><title>Customer reviews</title><polygon class="cls-1" points="167.5 243.96 250 269.93 194.15 447.36 160.71 409.53 111.64 421.39 167.5 243.96"/><polygon class="cls-2" points="218.72 369.29 145.44 314 167.5 243.96 250 269.93 218.72 369.29"/><polygon class="cls-1" points="332.77 243.96 250.26 269.93 306.12 447.36 339.55 409.53 388.62 421.39 332.77 243.96"/><polygon class="cls-2" points="281.54 369.29 355.27 315.42 332.77 243.96 250.26 269.93 281.54 369.29"/><path class="cls-3" d="M430.29,149.91h0c.05-1.24.1-2.48.1-3.72,0-50.11-42.26-93.55-94.4-93.55-38.12,0-70.93,24.54-85.84,55.8h0c-14.9-31.26-47.72-55.8-85.84-55.8-52.13,0-94.4,43.44-94.4,93.55,0,1.24.05,2.48.1,3.72h0s-5.33,59.53,60.92,124.52c30.12,30.18,63.8,58.86,119.24,103.92,55.44-45.06,89.13-73.74,119.25-103.92C435.62,209.44,430.29,149.91,430.29,149.91Z"/><path class="cls-4" d="M430.29,149.73h0c.05-1.24.1-2.48.1-3.73,0-47.55-38.06-89.06-86.5-93.18,25.29,17.1,41.95,45.92,41.95,77.38,0,1.25,0,2.48-.1,3.72h0s5.33,59.53-60.92,124.52c-27.75,27.81-58.55,54.35-106.59,93.61,9.8,8.11,20.37,16.76,31.89,26.12,55.44-45.07,89.13-73.75,119.25-103.92C435.62,209.25,430.29,149.73,430.29,149.73Z"/></svg>