<svg xmlns="http://www.w3.org/2000/svg" viewBox="0 0 100 100"><defs><style>.cls-1{fill:#231f20;}.cls-1,.cls-2,.cls-3,.cls-4{stroke:#231f20;stroke-width:1.5px;}.cls-1,.cls-3{stroke-miterlimit:10;}.cls-2{fill:#f0457d;}.cls-2,.cls-4{stroke-linejoin:bevel;}.cls-3{fill:#ffd44d;}.cls-4{fill:#0099f5;}</style></defs><g id="Layer_2" data-name="Layer 2"><path class="cls-1" d="M28.69,23.5H35a5,5,0,0,1,5,5V29a2.42,2.42,0,0,1-2.43,2.43H36a2.43,2.43,0,0,0-2.43,2.43v3.24A2.43,2.43,0,0,0,36,39.55H37.6A2.43,2.43,0,0,1,40,42v.52a5,5,0,0,1-5,5H28.68"/><path class="cls-1" d="M53.37,47.5h26a5,5,0,0,0,5-5V42A2.43,2.43,0,0,0,82,39.55H80.31a2.43,2.43,0,0,1-2.43-2.43V33.88a2.43,2.43,0,0,1,2.43-2.43H82A2.42,2.42,0,0,0,84.39,29v-.5a5,5,0,0,0-5-5h-26"/><path class="cls-2" d="M74.59,33.88v3.24A2.43,2.43,0,0,0,77,39.55h1.65A2.43,2.43,0,0,1,81.1,42v.5a5,5,0,0,1-5,5h-26a5,5,0,0,1-2.79-.85.79.79,0,0,1-.16-1.14,4.94,4.94,0,0,0,1-3V42a2.43,2.43,0,0,0-2.44-2.43H44.05a2.43,2.43,0,0,1-2.43-2.43V33.88a2.42,2.42,0,0,1,2.43-2.42h1.64A2.44,2.44,0,0,0,48.13,29v-.51a5,5,0,0,0-1-3,.8.8,0,0,1,.16-1.14,5,5,0,0,1,2.8-.86h26a5,5,0,0,1,5,5V29a2.43,2.43,0,0,1-2.43,2.44H77A2.42,2.42,0,0,0,74.59,33.88Z"/><path class="cls-3" d="M30.55,33.88v3.24A2.43,2.43,0,0,0,33,39.55h1.65A2.43,2.43,0,0,1,37.06,42v.51a5,5,0,0,1-5,5H25.71a5,5,0,0,1-5-5v-14a5,5,0,0,1,5-5h6.33a5,5,0,0,1,5,5V29a2.43,2.43,0,0,1-2.43,2.44H33A2.42,2.42,0,0,0,30.55,33.88Z"/><path class="cls-1" d="M29.51,77.47H45.69l11.72.4a5,5,0,0,0,2.8-.85.81.81,0,0,0,.16-1.15,5,5,0,0,1-1-3v-.5a2.44,2.44,0,0,1,2.44-2.44h1.64a2.43,2.43,0,0,0,2.43-2.43V64.26a2.43,2.43,0,0,0-2.43-2.44H61.8a2.43,2.43,0,0,1-2.44-2.42v-.52a4.94,4.94,0,0,1,1-3,.81.81,0,0,0-.16-1.15,5,5,0,0,0-2.79-.85l-11.73-.4H29.51a4.49,4.49,0,0,1-3.89-2"/><path class="cls-4" d="M25.62,51.42a.57.57,0,0,0-.5-.27"/><path class="cls-4" d="M59.64,61.82H58a2.42,2.42,0,0,1-2.43-2.42v-.52a5,5,0,0,1,1-3,.81.81,0,0,0-.15-1.15,5,5,0,0,0-2.8-.85l-11.72-.4H25.71a4.49,4.49,0,0,1-3.89-2,.62.62,0,0,0-1.12.36V72.46a5,5,0,0,0,5,5H41.89l11.71.4A5,5,0,0,0,56.4,77a.8.8,0,0,0,.16-1.15,5.06,5.06,0,0,1-1-3v-.5A2.43,2.43,0,0,1,58,69.92h1.65a2.43,2.43,0,0,0,2.43-2.43V64.26A2.43,2.43,0,0,0,59.64,61.82Z"/><line class="cls-4" x1="25.09" y1="51.16" x2="21.35" y2="51.16"/><path class="cls-2" d="M59.64,61.82H58a2.42,2.42,0,0,1-2.43-2.42v-.52a5,5,0,0,1,1-3,.81.81,0,0,0-.15-1.15,5,5,0,0,0-2.8-.85l-11.72-.4H25.71a4.49,4.49,0,0,1-3.89-2,.62.62,0,0,0-1.12.36V72.46a5,5,0,0,0,5,5H41.89l11.71.4A5,5,0,0,0,56.4,77a.8.8,0,0,0,.16-1.15,5.06,5.06,0,0,1-1-3v-.5A2.43,2.43,0,0,1,58,69.92h1.65a2.43,2.43,0,0,0,2.43-2.43V64.26A2.43,2.43,0,0,0,59.64,61.82Z"/><path class="cls-1" d="M74.22,77.47h5.15A5,5,0,0,0,82.92,76l.33-.36a5,5,0,0,0,1.15-3.19V51.78a.61.61,0,0,0-.54-.61h-3.3"/><path class="cls-3" d="M80,51.42a4.51,4.51,0,0,1-3.88,2H70.92a5,5,0,0,0-5,5V59h0a2.43,2.43,0,0,0,2.44,2.42H70a2.43,2.43,0,0,1,2.43,2.44v3.23A2.43,2.43,0,0,1,70,69.52H68.35A2.43,2.43,0,0,0,65.91,72v.51h0a5,5,0,0,0,5,5h5.16a5,5,0,0,0,3.5-1.42l.09-.09.29-.31a.56.56,0,0,0,.05-.08,5.88,5.88,0,0,0,.36-.51l.09-.16a5.18,5.18,0,0,0,.3-.63l.06-.17a5.28,5.28,0,0,0,.19-.71s0-.08,0-.12a5.42,5.42,0,0,0,.07-.81h0v-14h0v-6.7A.62.62,0,0,0,80,51.42Z"/></g></svg>