<?xml version="1.0" encoding="UTF-8"?><svg id="Layer_1" xmlns="http://www.w3.org/2000/svg" viewBox="0 0 500 500"><defs><style>.cls-1{fill:#f9bb0d;}.cls-2{fill:#ffd44d;}</style></defs><path class="cls-1" d="M286.35,392.89c0,6.32-1.2,12.25-3.59,17.8-2.39,5.55-5.63,10.37-9.73,14.47-4.1,4.1-8.88,7.34-14.34,9.73-5.47,2.39-11.27,3.59-17.41,3.59h-18.35c-6.49,0-12.51-1.2-18.06-3.59-5.55-2.39-10.37-5.63-14.47-9.73s-7.3-8.92-9.6-14.47c-2.3-5.55-3.46-11.48-3.46-17.8s1.15-12.25,3.46-17.8c2.3-5.55,5.51-10.41,9.6-14.6,4.1-4.18,8.92-7.47,14.47-9.86,5.55-2.39,11.56-3.59,18.06-3.59h18.35c6.15,0,11.95,1.2,17.41,3.59,5.46,2.39,10.24,5.68,14.34,9.86,4.1,4.19,7.34,9.05,9.73,14.6,2.39,5.55,3.59,11.48,3.59,17.8ZM357.29,117.78c-5.41-12.19-12.8-22.48-22.18-30.87-9.37-8.38-20.39-14.71-33.04-18.98-12.65-4.27-26.22-6.4-40.7-6.4h-18.35c-15.55,0-29.92,2.02-43.1,6.06-13.19,4.04-24.62,10.18-34.3,18.41-9.68,8.23-17.3,18.56-22.87,30.98-4.19,9.35-6.89,19.93-8.09,31.74-.68,6.64,4.26,12.54,10.9,13.18l48.69,4.75c2.3,.22,18.35,0,18.35,0,6.43,.63,12.23-3.9,13.17-10.29,.44-2.96,1.06-5.6,1.87-7.94,1.75-5.03,4.15-8.99,7.2-11.89,3.05-2.89,6.59-4.88,10.63-5.94,.76-.2,1.54-.36,2.32-.53,4.2,1.29,7.75,3.75,10.65,7.38,4.49,5.64,6.74,12.96,6.74,21.95,0,6.25-.54,11.89-1.6,16.92-1.07,5.03-2.9,9.91-5.49,14.63-2.59,4.73-6.17,9.49-10.75,14.29-4.49,4.71-10.16,9.91-17,15.58-.25,.21-.52,.41-.79,.6-6.38,4.47-11.81,8.68-16.29,12.63-4.57,4.04-8.43,8.2-11.55,12.46-3.13,4.27-5.64,8.88-7.55,13.83-1.91,4.96-3.35,10.6-4.34,16.92-.99,6.33-1.64,13.53-1.94,21.61-.18,4.81-.31,10.09-.38,15.82-.09,6.77,5.36,12.3,12.13,12.3h65.82c6.48,0,11.86-5.08,12.15-11.55,.3-6.51,.86-12.26,1.7-17.26,1.29-7.77,3.54-14.63,6.74-20.58,3.2-5.94,7.47-11.43,12.81-16.46,5.33-5.03,12.04-10.44,20.12-16.23,15.7-12.35,27.36-25.46,34.99-39.33,7.62-13.87,11.43-29.11,11.43-45.73s-2.71-29.88-8.12-42.07Z"/><path class="cls-2" d="M264.41,375.09c2.39,5.55,3.59,11.48,3.59,17.8s-1.2,12.25-3.59,17.8c-2.39,5.55-5.63,10.37-9.73,14.47-4.1,4.1-8.88,7.34-14.34,9.73-5.47,2.39-11.27,3.59-17.41,3.59-6.49,0-12.51-1.2-18.06-3.59-5.55-2.39-10.37-5.63-14.47-9.73-4.1-4.1-7.3-8.92-9.6-14.47-2.3-5.55-3.46-11.48-3.46-17.8s1.15-12.25,3.46-17.8c2.3-5.55,5.51-10.41,9.6-14.6,4.1-4.18,8.92-7.47,14.47-9.86,5.55-2.39,11.56-3.59,18.06-3.59,6.15,0,11.95,1.2,17.41,3.59,5.46,2.39,10.24,5.68,14.34,9.86,4.1,4.19,7.34,9.05,9.73,14.6ZM338.94,117.78c-5.41-12.19-12.8-22.48-22.18-30.87-9.37-8.38-20.39-14.71-33.04-18.98-12.65-4.27-26.22-6.4-40.7-6.4-15.55,0-29.92,2.02-43.1,6.06-13.19,4.04-24.62,10.18-34.3,18.41-9.68,8.23-17.3,18.56-22.87,30.98-4.19,9.35-6.89,19.93-8.09,31.74-.68,6.64,4.26,12.54,10.9,13.18l48.69,4.75c6.43,.63,12.23-3.9,13.17-10.29,.44-2.96,1.06-5.6,1.87-7.94,1.75-5.03,4.15-8.99,7.2-11.89,3.05-2.89,6.59-4.88,10.63-5.94,4.04-1.07,8.42-1.6,13.15-1.6,7.62,0,13.68,2.82,18.18,8.46,4.49,5.64,6.74,12.96,6.74,21.95,0,6.25-.54,11.89-1.6,16.92-1.07,5.03-2.9,9.91-5.49,14.63-2.59,4.73-6.17,9.49-10.75,14.29-4.49,4.71-10.16,9.91-17,15.58-.25,.21-.52,.41-.79,.6-6.38,4.47-11.81,8.68-16.29,12.63-4.57,4.04-8.43,8.2-11.55,12.46-3.13,4.27-5.64,8.88-7.55,13.83-1.91,4.96-3.35,10.6-4.34,16.92-.99,6.33-1.64,13.53-1.94,21.61-.18,4.81-.31,10.09-.38,15.82-.09,6.77,5.36,12.3,12.13,12.3h47.46c6.48,0,11.86-5.08,12.15-11.55s.86-12.26,1.7-17.26c1.29-7.77,3.54-14.63,6.74-20.58,3.2-5.94,7.47-11.43,12.81-16.46,5.33-5.03,12.04-10.44,20.12-16.23,15.7-12.35,27.36-25.46,34.99-39.33,7.62-13.87,11.43-29.11,11.43-45.73s-2.71-29.88-8.12-42.07Z"/></svg>