<svg xmlns="http://www.w3.org/2000/svg" viewBox="0 0 100 100"><defs><style>.cls-1{fill:#ffd44d;}.cls-1,.cls-2,.cls-3,.cls-4,.cls-5,.cls-6,.cls-7{stroke:#231f20;stroke-width:1.5px;}.cls-1,.cls-4,.cls-5,.cls-8{stroke-miterlimit:10;}.cls-2{fill:#0099f5;}.cls-2,.cls-3,.cls-6,.cls-7{stroke-linejoin:bevel;}.cls-3{fill:#f0457d;}.cls-4{fill:#231f20;}.cls-5,.cls-6,.cls-8{fill:none;}.cls-7{fill:#fff;}.cls-8{stroke:#fff;}</style></defs><g id="Layer_2" data-name="Layer 2"><polygon class="cls-1" points="28.02 70.79 28.02 82.44 35.6 82.44 40.89 69.27 34.45 64.7 28.02 70.79"/><polygon class="cls-1" points="26.46 70.79 26.46 82.44 34.04 82.44 39.33 69.27 32.9 64.7 26.46 70.79"/><path class="cls-2" d="M16.59,60.5H21a0,0,0,0,1,0,0V68.9a0,0,0,0,1,0,0H16.59a4,4,0,0,1-4-4v-.47a4,4,0,0,1,4-4Z" transform="translate(-28.13 15.22) rotate(-27.68)"/><path class="cls-3" d="M51.83,28.09l15,28.52A7.14,7.14,0,0,1,61,67.05l-5.83.39C50.2,67.79,25,71.6,25,71.6c-2,1-4.58,0-8.23-6.94s-3-9.7-1-10.74c0,0,14.4-14.7,20.53-22.41L39.93,27A7.14,7.14,0,0,1,51.83,28.09Z"/><ellipse class="cls-4" cx="55.71" cy="44.24" rx="6.55" ry="22.09" transform="translate(-14.18 30.94) rotate(-27.68)"/><path class="cls-5" d="M61.28,24.11a15.77,15.77,0,0,1,15.17,8.68,15.75,15.75,0,0,1-1.51,17.43"/><path class="cls-5" d="M65.34,14.79a26,26,0,0,1,19,13.85A26,26,0,0,1,85,52.1"/><path class="cls-6" d="M20.65,54.36a27.66,27.66,0,0,0,2.41,6.41,35.29,35.29,0,0,0,8.12,10"/><path class="cls-6" d="M20,49.43a17.2,17.2,0,0,0,.24,2.69"/><circle class="cls-1" cx="62.52" cy="40.67" r="8.44"/><line class="cls-7" x1="62.52" y1="36.29" x2="62.52" y2="38.28"/><line class="cls-7" x1="66.45" y1="38.14" x2="58.58" y2="38.14"/><path class="cls-6" d="M64.8,38.14a10.07,10.07,0,0,1-4.57,7"/><path class="cls-6" d="M60.17,38.14h0a10.07,10.07,0,0,0,4.57,7l.12.07"/><path class="cls-4" d="M35.54,70s-9.08,4.52-9.08,9.1V71.39Z"/><path class="cls-8" d="M41.11,41.66a46.39,46.39,0,0,0,3.61,8.78"/><path class="cls-8" d="M39.33,33a43.31,43.31,0,0,0,1.17,6.46"/></g></svg>